<svg xmlns="http://www.w3.org/2000/svg"
shape-rendering="geometricPrecision"
width="4000" height="4000" viewBox="0 0 625 625">
  <metadata>null</metadata>

<path d="
M 28.229 469.728
C 30.495 468.988 33.443 469.467 35.818 469.457
C 42.984 469.426 50.491 469.24 56.392 474.02
C 65.458 481.365 66.23 496.177 57.689 504.222
C 49.693 511.755 38.41 509.417 28.476 509.861
C 27.992 509.416 28.252 508.162 28.26 507.508
C 28.294 505.009 28.242 502.506 28.234 500.006
C 28.202 489.919 28.037 479.812 28.229 469.728 Z
M 33.474 474.01
C 33.372 474.072 33.269 474.135 33.166 474.197
C 32.678 484.566 33.532 494.995 33.154 505.368
C 35.007 505.657 37.086 505.45 38.968 505.456
C 43.789 505.474 48.516 505.408 52.62 502.516
C 60.663 496.85 60.803 483.513 53.165 477.453
C 47.446 472.916 40.26 474.128 33.474 474.01 Z"
opacity="1" fill="rgb(152,27,29)" fill-rule="evenodd" />
<path d="
M 39.894 548.404
C 41.228 548.516 42.282 549.433 43.564 549.769
C 45.517 550.282 50.246 549.231 47.782 546.423
C 45.711 544.064 40.453 545.8 40.124 541.439
C 40.082 540.89 40.183 540.3 40.388 539.79
C 41.441 537.165 44.558 536.864 46.937 537.539
C 47.96 537.829 49.803 538.511 49.564 539.838
C 47.264 540.639 42.802 536.729 41.843 541.031
C 43.007 544.531 52.03 543.361 49.941 548.781
C 48.795 551.755 45.254 551.984 42.641 551.328
C 41.206 550.967 39.478 550.071 39.894 548.404 Z"
opacity="0.996" fill="rgb(0,0,0)" fill-rule="evenodd" />
<path d="
M 52.745 532.286
C 53.659 531.909 54.549 531.724 55.241 532.558
C 55.789 533.884 54.969 535.031 53.537 534.899
C 52.75 534.16 52.7 533.328 52.745 532.286 Z"
opacity="1" fill="rgb(7,4,3)" fill-rule="evenodd" />
<path d="
M 53.378 537.368
C 55.413 536.914 55.062 538.99 55.078 540.475
C 55.103 542.711 54.912 544.936 54.902 547.173
C 54.896 548.596 55.162 550.247 54.77 551.62
C 54.344 551.769 54.119 551.642 53.695 551.578
C 52.921 550.525 53.16 548.762 53.183 547.498
C 53.242 544.145 52.983 540.693 53.378 537.368 Z"
opacity="1" fill="rgb(4,5,5)" fill-rule="evenodd" />
<path d="
M 58.492 542.07
C 59.751 539.612 61.324 537.444 64.335 537.254
C 67.888 537.03 71.787 541.315 70.732 544.888
C 68.266 545.404 65.732 545.191 63.221 545.187
C 62.237 545.185 60.605 544.971 59.826 545.645
C 60.833 547.865 62.274 549.756 64.917 549.921
C 66.672 550.031 67.587 548.764 69.152 548.326
C 70.117 548.056 70.108 548.636 69.802 549.295
C 68.428 550.694 66.887 551.774 64.832 551.733
C 60.31 551.642 57.017 546.127 58.492 542.07 Z
M 60.032 542.622
C 59.825 543.282 59.848 542.96 59.924 543.584
C 62.843 543.469 66.472 543.339 69.36 543.778
C 69.433 540.975 66.181 538.091 63.481 539.022
C 61.661 539.649 60.923 541.069 60.032 542.622 Z"
opacity="0.996" fill="rgb(1,1,1)" fill-rule="evenodd" />
<path d="
M 73.978 540.62
C 74.15 539.273 73.816 538.195 75.113 537.38
C 75.5 537.91 75.653 538.51 75.781 539.146
C 76.554 539.619 77.087 538.488 77.663 538.114
C 78.384 537.647 79.28 537.382 80.134 537.4
C 82.015 537.439 82.456 539.664 83.927 540.076
C 84.691 539.267 85.572 538.442 86.541 537.882
C 87.152 537.529 87.856 537.325 88.555 537.261
C 93.925 536.768 93.64 543.489 93.608 547.028
C 93.59 548.912 94.517 551.225 92.118 551.249
C 91.102 548.129 92.652 544.476 91.747 541.288
C 90.795 537.934 86.602 538.374 84.978 541.033
C 83.254 543.855 85.136 548.321 84.229 551.355
C 83.74 551.346 83.306 551.264 82.834 551.144
C 81.799 548.148 83.706 544.503 82.69 541.425
C 81.522 537.885 77.521 538.774 75.725 541.268
C 75.227 544.677 75.912 548.181 75.441 551.531
C 74.973 551.665 74.486 551.587 74.008 551.528
C 72.986 548.556 73.753 543.746 73.978 540.62 Z"
opacity="1" fill="rgb(6,6,5)" fill-rule="evenodd" />
<path d="
M 77.952 470.613
C 78.004 469.933 77.994 470.335 77.926 469.409
C 79.527 469.411 81.13 469.398 82.73 469.385
C 82.49 477.907 82.75 486.468 82.754 494.995
C 82.757 499.844 82.155 505.163 82.864 509.957
C 81.519 510.075 79.371 510.123 78.091 509.694
C 78.215 496.715 77.103 483.579 77.952 470.613 Z"
opacity="1" fill="rgb(158,27,27)" fill-rule="evenodd" />
<path d="
M 97.43 538.595
C 97.551 538.071 97.459 537.77 97.889 537.408
C 99.159 537.214 98.976 538.357 99.102 539.388
C 99.433 539.831 101.375 538.032 101.93 537.761
C 103.412 537.037 105.302 537.069 106.723 537.913
C 111.938 541.011 111.714 549.921 105.361 551.534
C 103.95 551.892 102.263 551.493 101.079 550.666
C 100.353 550.16 99.837 549.362 98.918 549.343
C 98.631 551.409 99.669 554.38 98.887 556.27
C 98.445 556.246 98.052 556.168 97.623 556.067
C 96.852 554.46 97.24 551.758 97.319 549.995
C 97.487 546.206 96.964 542.376 97.43 538.595 Z
M 99.367 542.051
C 98.905 543.632 98.868 545.896 99.773 547.31
C 102.168 551.049 107.079 550.54 108.446 546.253
C 109.231 543.792 108.293 540.47 105.915 539.236
C 103.678 538.074 100.094 539.564 99.367 542.051 Z"
opacity="0.996" fill="rgb(3,4,4)" fill-rule="evenodd" />
<path d="
M 98.79 469.362
C 104.669 469.644 110.624 469.454 116.512 469.46
C 120.399 469.465 124.45 469.785 128.316 469.424
C 128.327 470.7 128.664 472.922 127.985 474.04
C 120.068 473.75 111.781 473.46 103.876 474.098
C 103.25 475.348 103.607 476.653 103.617 478.002
C 103.638 480.784 102.956 484.434 103.751 487.096
C 108.924 487.544 114.311 487.192 119.505 487.173
C 121.456 487.165 123.851 486.747 125.744 487.186
C 125.687 488.349 125.349 490.562 125.775 491.589
C 118.429 491.691 111.076 491.614 103.729 491.731
C 103.018 496.039 103.774 500.83 103.688 505.196
C 105.077 506.064 108.828 505.378 110.512 505.369
C 116.562 505.337 122.665 505.57 128.705 505.225
C 128.476 506.316 128.766 507.603 128.714 508.723
C 128.71 508.813 128.707 509.898 128.615 509.893
C 123.111 509.539 117.514 509.809 111.999 509.795
C 107.72 509.785 103.19 509.393 98.939 509.909
C 98.151 505.202 98.826 499.782 98.815 495.002
C 98.795 486.492 98.376 477.858 98.79 469.362 Z"
opacity="1" fill="rgb(158,26,28)" fill-rule="evenodd" />
<path d="
M 113.47 538.604
C 113.518 538.284 113.566 537.964 113.614 537.644
C 115.253 537.75 115.102 538.388 115.476 539.8
C 115.671 540.167 116.22 539.607 116.477 539.419
C 117.7 538.524 118.706 537.683 120.17 537.189
C 120.928 539.714 115.841 540.608 115.32 543.006
C 114.923 544.834 115.075 546.771 115.118 548.616
C 115.134 549.262 115.415 550.702 115.06 551.275
C 113.974 553.03 113.375 549.529 113.353 549.049
C 113.197 545.63 113.363 542.024 113.47 538.604 Z"
opacity="1" fill="rgb(3,4,2)" fill-rule="evenodd" />
<path d="
M 116.398 185.581
C 117.847 178.932 121.853 175.076 128.163 172.979
C 128.57 174.258 128.927 175.587 128.978 176.935
C 126.728 177.809 124.567 178.522 122.977 180.484
C 121.718 182.038 120.629 183.963 120.267 185.947
C 119.501 190.149 120.65 194.407 123.816 197.407
C 129.084 202.4 138.077 202.52 142.365 196.288
C 143.378 194.815 144.027 193.152 144.374 191.402
C 144.891 188.789 144.445 186.363 143.702 183.847
C 144.846 182.911 146.34 182.21 147.752 181.787
C 148.398 182.958 148.262 185.12 148.375 186.456
C 149.03 194.174 145.526 202.063 137.741 204.668
C 129.345 207.477 119.988 202.346 117.049 194.202
C 116.062 191.466 115.813 188.439 116.398 185.581 Z"
opacity="1" fill="rgb(3,4,3)" fill-rule="evenodd" />
<path d="
M 121.485 543.618
C 122.089 539.662 125.493 536.103 129.798 537.796
C 131.644 538.522 135.127 542.362 133.9 544.656
C 133.503 545.398 131.599 545.278 130.944 545.217
C 129.071 545.041 124.711 544.249 123.268 545.588
C 124.082 548.472 126.856 551.221 130.154 549.693
C 131.197 549.21 132.091 547.785 133.29 547.944
C 134.36 550.181 129.493 551.762 128.004 551.679
C 123.678 551.438 121.664 547.459 121.485 543.618 Z
M 123.426 542.6
C 123.32 543.298 123.22 543.006 123.665 543.492
C 126.454 543.493 129.368 543.955 132.161 543.576
C 132.376 543.126 131.899 542.593 131.693 542.203
C 130.953 540.801 130.33 539.271 128.601 538.856
C 126.028 538.24 124.228 540.525 123.426 542.6 Z"
opacity="0.996" fill="rgb(3,3,2)" fill-rule="evenodd" />
<path d="
M 136.957 152.092
C 137.415 149.789 138.37 147.545 139.695 145.607
C 140.848 143.919 142.311 142.519 144.006 141.382
C 155.795 133.476 172.156 144.819 169.187 158.549
C 168.635 161.101 167.627 163.523 166.032 165.609
C 160.436 172.927 149.396 173.791 142.333 168.008
C 137.852 164.339 135.848 157.664 136.957 152.092 Z
M 140.894 153.593
C 139.456 165.89 155.906 172.942 163.346 162.699
C 164.633 160.927 165.225 158.817 165.542 156.68
C 166.734 148.646 158.002 141.982 150.558 143.027
C 147.304 143.484 144.31 145.795 142.637 148.557
C 141.722 150.068 141.099 151.836 140.894 153.593 Z"
opacity="1" fill="rgb(2,3,2)" fill-rule="evenodd" />
<path d="
M 139.423 485.587
C 142.232 474.363 152.24 466.723 164.062 469.254
C 168.195 470.139 171.004 472.292 174.41 474.577
C 173.591 475.875 172.781 477.336 171.676 478.413
C 168.541 476.299 165.834 473.907 161.894 473.457
C 158.699 473.093 155.648 473.505 152.747 474.931
C 142.756 479.843 140.868 494.355 148.942 501.898
C 153.57 506.222 159.872 507.152 165.757 505.209
C 167.449 504.65 169.718 503.802 170.897 502.403
C 171.287 499.151 170.839 495.687 170.913 492.41
C 169.782 492.027 168.273 492.303 167.081 492.313
C 164.442 492.333 161.761 492.224 159.129 492.42
C 158.304 491.599 158.933 488.884 158.909 487.735
C 164.406 487.932 169.914 487.863 175.412 487.986
C 175.381 493.371 175.983 499.011 175.316 504.37
C 173.593 506.189 171.236 507.421 168.987 508.462
C 156.467 514.255 141.398 507.251 139.286 493.197
C 138.914 490.722 138.928 488.043 139.423 485.587 Z"
opacity="1" fill="rgb(154,23,26)" fill-rule="evenodd" />
<path d="
M 141.923 259.617
C 142.738 253.229 143.195 246.843 144.422 240.499
C 146.235 231.121 148.95 221.92 152.259 212.965
C 165.413 177.369 193.137 145.966 226.948 128.691
C 250.021 116.902 275.776 110.226 301.746 110.335
C 342.547 110.507 382.546 126.308 412.154 154.431
C 423.13 164.856 432.04 176.847 439.688 189.856
C 443.814 196.873 447.686 204.418 450.501 212.07
C 456.707 228.94 460.547 247.186 460.928 265.176
C 460.934 265.863 460.956 266.551 460.936 267.238
C 460.934 267.33 460.786 268.219 460.777 268.035
C 458.269 232.779 442.446 198.662 418.582 172.856
C 394.605 146.927 360.026 130.819 325.131 127.168
C 310.385 125.626 295.534 126.565 281.04 129.585
C 266.089 132.701 251.547 138.324 238.392 146.095
C 191.664 173.7 162.074 226.534 166.456 281.054
C 167.599 295.277 170.766 309.162 175.934 322.477
C 177.73 327.104 179.804 331.808 182.192 336.16
C 183.132 337.873 185.448 340.306 185.738 342.185
C 185.856 342.948 185.203 343.873 184.915 344.541
C 184.274 346.023 183.953 347.631 183.351 349.128
C 181.563 353.576 180.035 358.268 178.645 362.858
C 178.084 364.713 177.418 368.307 176.089 369.697
C 175.507 369.532 175.038 368.793 174.662 368.348
C 173.438 366.899 172.26 365.393 171.177 363.834
C 167.208 358.118 163.406 352.173 160.196 345.994
C 146.306 319.252 140.26 289.666 141.923 259.617 Z"
opacity="1" fill="rgb(184,33,34)" fill-rule="evenodd" />
<path d="
M 143.888 538.609
C 143.904 538.032 143.825 536.891 144.695 537.355
C 145.119 537.781 145.295 538.916 145.554 539.495
C 146.975 538.754 147.774 537.465 149.52 537.307
C 153.967 536.906 156.773 541.412 156.32 545.409
C 155.97 548.497 153.254 552.479 149.698 551.706
C 148.651 551.479 147.826 550.947 146.864 550.526
C 146.507 550.369 146.169 549.856 145.812 550.013
C 145.613 550.1 145.419 551.376 145.393 551.654
C 145.259 553.123 145.678 554.715 145.318 556.154
C 144.775 556.189 144.332 556.183 143.849 555.931
C 143.069 550.319 144.069 544.277 143.888 538.609 Z
M 145.484 542.095
C 145.316 543.718 145.055 546.405 146.091 547.782
C 148.444 550.911 153.265 550.411 154.284 546.429
C 154.787 544.459 154.543 541.851 153.14 540.28
C 150.952 537.829 147.135 539.151 145.585 541.628
C 145.551 541.783 145.518 541.939 145.484 542.095 Z"
opacity="1" fill="rgb(3,3,2)" fill-rule="evenodd" />
<path d="
M 158.957 542.063
C 159.262 541.166 159.699 540.361 160.3 539.63
C 164.783 534.173 171.251 539.078 171.377 544.939
C 167.943 545.831 163.573 543.699 160.286 545.426
C 160.544 548.521 163.334 550.517 166.369 549.86
C 167.799 549.551 168.93 548.53 170.356 548.204
C 170.034 551.654 164.823 552.381 162.263 551.063
C 158.94 549.354 158.225 545.403 158.957 542.063 Z
M 160.527 542.648
C 160.429 542.853 160.332 543.057 160.235 543.262
C 162.756 544.103 166.804 543.555 169.431 543.317
C 169.79 540.602 165.987 538.145 163.611 538.995
C 161.944 539.592 161.192 541.146 160.527 542.648 Z"
opacity="0.996" fill="rgb(3,3,2)" fill-rule="evenodd" />
<path d="
M 164.134 119.952
C 165.115 119.103 165.85 117.953 166.928 117.187
C 169.601 117.722 172.244 118.801 174.89 119.502
C 182.431 121.502 189.915 123.67 197.375 125.898
C 192.224 119.464 187.635 112.533 182.413 106.157
C 183.096 105.119 184.425 104.026 185.625 103.749
C 189.496 108.684 192.957 113.954 196.943 118.805
C 198.839 121.112 200.524 123.577 202.388 125.908
C 203.144 126.853 204.418 127.853 204.948 128.912
C 204.248 129.711 203.259 130.545 202.288 130.999
C 201.152 131.191 200.114 130.604 199.061 130.255
C 197.291 129.667 195.499 129.191 193.698 128.711
C 186.426 126.773 179.185 124.775 171.89 122.933
C 172.895 125.113 174.77 126.857 176.251 128.735
C 178.615 131.732 180.91 134.775 183.206 137.824
C 184.144 139.07 185.14 140.27 186.166 141.446
C 186.464 141.788 187.206 142.199 186.901 142.68
C 186.034 143.384 184.513 144.988 183.405 145.131
C 179.116 138.241 173.334 132.164 168.547 125.611
C 167.182 123.744 165.198 121.977 164.134 119.952 Z"
opacity="1" fill="rgb(3,3,2)" fill-rule="evenodd" />
<path d="
M 174.404 538.054
C 175.496 536.041 175.443 538.644 175.965 539.491
C 177.945 538.451 179.413 536.762 181.896 537.435
C 186.156 538.591 185.499 543.641 185.496 547.01
C 185.495 548.313 185.777 550.037 185.251 551.249
C 184.719 551.455 184.409 551.427 183.855 551.343
C 182.829 548.233 184.339 544.578 183.442 541.401
C 182.748 538.945 180.006 538.682 178.077 539.895
C 177.337 540.36 176.638 540.871 176.1 541.561
C 175.01 544.549 176.513 548.256 175.79 551.343
C 175.286 551.453 175.016 551.334 174.527 551.244
C 173.919 550.012 174.181 548.341 174.188 546.993
C 174.202 544.193 173.676 540.764 174.404 538.054 Z"
opacity="1" fill="rgb(1,1,1)" fill-rule="evenodd" />
<path d="
M 174.831 391.516
C 189.704 349.795 203.203 307.579 217.876 265.782
C 220.335 258.779 222.678 251.733 225.108 244.72
C 226.853 239.68 228.189 234.332 231.385 229.955
C 233.979 226.403 237.232 223.181 241.127 221.088
C 245.31 218.84 250.34 217.883 254.874 216.565
C 257.685 215.747 260.711 214.197 263.598 213.848
C 265.359 214.28 267.101 215.501 268.73 216.303
C 272.224 218.022 275.852 219.526 279.238 221.46
C 281.697 222.865 284.278 224.825 286.895 225.86
C 285.488 223.719 282.607 222.024 280.723 220.277
C 276.51 216.371 272.373 212.374 268.126 208.506
C 266.47 206.998 263.429 205.437 262.352 203.506
C 261.639 199.539 260.187 194.002 260.92 190.03
C 261.219 188.406 262.321 186.699 263.1 185.259
C 265.231 181.318 267.668 177.619 270.536 174.181
C 270.701 174.059 270.827 173.832 271.032 173.816
C 271.181 173.805 271.341 174.948 271.345 174.994
C 271.468 176.266 271.607 177.486 271.961 178.723
C 272.916 182.067 274.28 185.272 276.357 188.081
C 282.263 196.07 292.267 199.523 301.814 200.555
C 302.677 217.274 301.843 234.254 301.849 251
C 301.861 284.002 301.89 317.004 301.89 350.006
C 301.89 361.673 301.88 373.34 301.907 385.008
C 301.919 390.24 301.367 395.738 301.845 400.936
C 295.295 401.376 288.575 400.964 282.004 400.959
C 268.524 400.948 255.036 400.891 241.562 401.028
C 241.267 392.995 241.981 384.868 242.211 376.828
C 242.682 360.379 243.239 343.931 243.929 327.491
C 244.153 322.162 244.167 316.818 244.431 311.493
C 244.638 307.337 245.689 302.415 244.891 298.336
C 244.647 299.109 244.368 299.844 244.106 300.607
C 231.507 335.239 215.441 368.507 202.327 402.934
C 201.604 403.079 200.819 402.53 200.148 402.279
C 198.44 401.64 196.771 400.896 195.062 400.257
C 188.32 397.734 181.542 394.385 174.594 392.538
C 174.74 391.834 174.66 392.174 174.831 391.516 Z
M 252.474 382.111
C 252.416 382.322 252.359 382.534 252.301 382.745
C 254.406 383.345 256.886 383.837 259.056 384.216
C 259.687 382.159 259.859 379.834 260.262 377.71
C 261.159 372.992 262.06 368.276 262.915 363.55
C 264.736 353.482 266.842 343.465 268.878 333.444
C 268.475 333.06 267.573 332.999 267.022 332.907
C 265.582 332.668 263.416 331.634 262.022 332.012
C 260.887 340.928 258.556 349.844 256.876 358.679
C 255.4 366.436 254.431 374.464 252.474 382.111 Z"
opacity="1" fill="rgb(179,30,33)" fill-rule="evenodd" />
<path d="
M 187.922 548.388
C 189.453 548.265 190.612 549.532 192.07 549.856
C 194.058 550.297 198.576 549.419 196.056 546.616
C 194.112 544.452 186.621 544.753 189.064 539.949
C 190.178 537.76 193.299 536.86 195.528 537.626
C 196.68 538.022 198.14 538.996 197.981 540.349
C 196.88 540.304 196.2 539.541 195.189 539.245
C 193.384 538.716 191.177 539.309 190.286 540.996
C 190.273 542.251 191.465 542.628 192.478 542.977
C 194.448 543.657 199.493 545.168 198.577 548.287
C 197.201 552.974 189.427 552.826 187.922 548.388 Z"
opacity="0.996" fill="rgb(3,2,1)" fill-rule="evenodd" />
<path d="
M 189.081 469.676
C 190.665 469.586 192.232 469.545 193.819 469.595
C 193.196 475.332 193.76 481.426 193.752 487.202
C 193.746 491.565 193.393 496.224 195.623 500.161
C 200.21 508.259 212.338 507.593 216.414 499.402
C 218.139 495.935 217.811 492.027 217.81 488.271
C 217.809 482.207 218.269 475.884 217.624 469.854
C 218.043 469.178 221.644 468.999 222.391 469.41
C 222.35 475.754 222.471 482.107 222.487 488.453
C 222.499 493.335 222.549 498.297 220.026 502.667
C 213.458 514.044 195.762 512.392 190.684 500.698
C 189.002 496.825 189.154 492.598 189.156 488.459
C 189.158 482.226 189.431 475.897 189.081 469.676 Z"
opacity="1" fill="rgb(159,28,28)" fill-rule="evenodd" />
<path d="
M 200.905 546.038
C 202.593 542.384 206.937 543.258 210.202 543.275
C 210.407 542.694 210.053 541.748 209.832 541.21
C 208.1 536.997 204.436 540.341 201.535 540.146
C 202.787 536.431 208.51 536.488 210.761 539.2
C 212.616 541.435 211.96 545.819 211.963 548.485
C 211.964 549.559 212.338 550.634 211.911 551.664
C 210.827 551.9 210.76 550.931 210.481 550.067
C 209.074 550.433 207.906 551.431 206.451 551.713
C 202.93 552.394 200.094 549.429 200.905 546.038 Z
M 202.448 546.561
C 202.018 549.231 204.809 551.008 207.257 550.089
C 209.644 549.194 210.251 547.422 210.237 545.106
C 207.953 543.866 203.856 544.373 202.448 546.561 Z"
opacity="1" fill="rgb(6,5,5)" fill-rule="evenodd" />
<path d="
M 202.177 93.452
C 208.915 89.789 216.125 86.05 223.325 83.375
C 223.872 84.335 224.832 85.816 224.936 86.922
C 221.108 88.915 217.053 90.553 213.178 92.481
C 211.544 93.294 208.956 93.883 207.747 95.295
C 208.676 97.264 209.721 99.168 210.577 101.176
C 210.991 102.147 211.356 103.463 212.179 104.137
C 214.748 102.485 218.022 101.527 220.833 100.305
C 223.148 99.299 225.415 97.912 227.816 97.148
C 228.531 97.651 229.309 99.678 229.334 100.508
C 224.139 103.047 218.786 105.354 213.524 107.753
C 215.139 110.766 216.583 113.87 218.224 116.868
C 218.548 117.461 220.087 119.664 219.805 120.203
C 218.604 120.48 217.135 121.293 216.094 121.944
C 215.431 121.495 215.135 120.434 214.804 119.713
C 213.94 117.833 213.052 115.969 212.165 114.099
C 208.884 107.192 205.515 100.325 202.177 93.452 Z"
opacity="1" fill="rgb(5,5,3)" fill-rule="evenodd" />
<path d="
M 209.435 400.539
C 211.359 396.563 212.999 392.436 214.755 388.383
C 215.902 385.737 217.342 383.132 218.267 380.403
C 221.39 382.285 224.163 384.851 227.11 387.007
C 229.857 389.017 232.855 390.665 235.591 392.666
C 235.776 394.176 235.459 395.809 235.437 397.335
C 235.39 400.598 235.44 403.867 235.378 407.127
C 237.71 407.715 240.974 407.065 243.4 407.057
C 250.401 407.035 257.577 406.519 264.561 406.932
C 266.843 407.067 268.909 408.103 271.085 408.721
C 274.897 409.804 278.783 410.75 282.656 411.587
C 293.574 413.944 304.652 414.917 315.812 414.787
C 326.026 414.668 336.354 413.311 346.287 410.95
C 349.005 410.304 351.781 409.671 354.433 408.788
C 355.927 408.291 357.403 407.437 358.969 407.22
C 364.016 406.521 369.256 407.166 374.326 407.198
C 374.326 405.247 374.485 403.366 374.364 401.417
C 375.95 399.884 378.722 399 380.676 397.985
C 383.813 396.357 386.885 394.562 389.924 392.76
C 391.273 391.96 392.541 391.041 393.877 390.227
C 394.237 390.008 394.889 389.408 395.299 389.399
C 396.626 392.825 398.242 396.139 399.565 399.57
C 399.083 400.415 397.483 401.103 396.688 401.66
C 394.388 403.271 392.162 404.987 389.808 406.522
C 380.345 412.691 369.979 417.745 359.437 421.777
C 322.979 435.723 280.924 435.322 244.695 420.689
C 236.744 417.477 229.019 413.763 221.639 409.39
C 217.551 406.967 213.482 403.544 209.191 401.6
C 209.217 400.875 209.14 401.229 209.435 400.539 Z"
opacity="1" fill="rgb(131,18,20)" fill-rule="evenodd" />
<path d="
M 216.371 538.044
C 217.39 536.274 217.702 538.275 217.782 539.313
C 218.25 539.757 219.542 538.197 220.029 537.937
C 221.134 537.347 222.652 537.195 223.861 537.536
C 228.197 538.757 227.418 544.084 227.375 547.503
C 227.361 548.697 227.602 550.11 227.275 551.263
C 226.747 551.396 226.442 551.374 225.915 551.303
C 225.423 548.097 226.377 544.692 225.606 541.515
C 224.93 538.731 222.096 538.437 219.939 539.836
C 219.149 540.348 218.56 540.961 217.944 541.66
C 217.712 544.587 218.667 548.814 217.592 551.529
C 217.182 551.74 216.826 551.661 216.386 551.675
C 215.923 550.27 216.156 548.48 216.144 547.009
C 216.121 544.2 215.632 540.762 216.371 538.044 Z"
opacity="1" fill="rgb(1,2,1)" fill-rule="evenodd" />
<path d="
M 230.418 543.084
C 231.466 539.936 233.953 536.221 237.865 537.537
C 238.67 537.807 240.68 539.624 241.251 539.533
C 241.541 537.347 240.094 531.949 243.234 532.14
C 243.01 537.062 243.479 542.043 243.324 546.978
C 243.276 548.508 243.532 550.086 243.186 551.58
C 242.816 551.715 242.534 551.583 242.149 551.535
C 241.907 550.907 241.653 550.299 241.345 549.7
C 239.734 550.198 238.916 551.454 237.065 551.572
C 232.632 551.855 229.648 547.072 230.418 543.084 Z
M 231.989 544.109
C 231.766 549.117 238.514 552.623 241.067 547.232
C 241.37 546.59 241.359 545.696 241.382 545.002
C 241.43 543.569 241.472 542.056 240.524 540.893
C 237.468 537.145 232.19 539.603 231.989 544.109 Z"
opacity="1" fill="rgb(4,4,3)" fill-rule="evenodd" />
<path d="
M 235.478 481.088
C 236.227 479.174 237.49 477.362 238 475.372
C 237.324 475.3 236.679 475.126 236.015 474.984
C 235.335 473.155 235.742 470.805 235.775 468.887
C 237.285 468.18 239.476 468.614 241.121 468.645
C 241.43 472.585 241.229 476.259 239.059 479.683
C 238.365 480.779 236.759 482.822 235.299 481.662
C 235.358 481.471 235.418 481.279 235.478 481.088 Z"
opacity="1" fill="rgb(161,26,30)" fill-rule="evenodd" />
<path d="
M 237.718 77.897
C 243.199 76.195 248.861 75.051 254.384 73.473
C 255.8 73.068 257.221 72.474 258.659 72.175
C 259.061 72.091 259.802 71.761 260.167 71.984
C 260.564 73.171 260.816 74.359 261.02 75.592
C 259.923 76.378 257.315 76.505 255.967 76.849
C 251.642 77.955 246.984 78.891 242.791 80.389
C 242.458 81.306 243.06 82.211 243.3 83.134
C 243.895 85.423 244.709 87.789 244.982 90.142
C 245.162 90.296 245.866 89.917 246.085 89.846
C 247.093 89.519 248.134 89.251 249.162 88.994
C 253.294 87.964 257.641 87.128 261.657 85.726
C 262.257 86.449 262.698 88.311 262.762 89.273
C 260.815 90.054 258.62 90.331 256.593 90.881
C 253.06 91.84 249.505 92.932 245.957 93.768
C 247.296 97.042 248.103 100.56 248.969 103.987
C 255.042 101.709 261.523 100.51 267.697 98.568
C 268.337 99.511 268.841 101.316 268.931 102.47
C 268.041 103.23 265.731 103.096 264.581 103.421
C 260.183 104.667 255.768 105.86 251.371 107.119
C 250.132 107.473 248.872 107.836 247.651 108.247
C 247.194 108.401 246.367 108.845 245.917 108.62
C 245.614 106.228 244.514 103.772 243.876 101.435
C 242.395 96.015 240.995 90.582 239.615 85.137
C 239.02 82.79 237.825 80.319 237.718 77.897 Z"
opacity="1" fill="rgb(4,5,3)" fill-rule="evenodd" />
<path d="
M 246.97 542.572
C 247.386 541.352 247.961 540.275 248.858 539.342
C 254.025 533.974 261.869 540.675 259.594 546.98
C 256.571 555.358 244.195 550.714 246.97 542.572 Z
M 248.46 543.598
C 247.418 550.342 257.169 552.102 258.027 545.126
C 258.852 538.422 249.522 536.732 248.46 543.598 Z"
opacity="1" fill="rgb(2,1,0)" fill-rule="evenodd" />
<path d="
M 251.844 503.472
C 252.488 502.475 253.317 501.643 254.073 500.735
C 255.038 500.943 255.763 501.952 256.594 502.481
C 258.522 503.707 260.466 504.855 262.684 505.482
C 265.911 506.395 270.121 506.625 273.171 504.995
C 276.55 503.189 277.774 498.711 275.104 495.718
C 269.595 489.544 258.118 493.09 253.9 484.863
C 250.504 478.241 255.417 471.169 261.99 469.497
C 268.498 467.842 274.519 470.133 279.93 473.621
C 280.401 474.501 278.441 477.044 277.948 477.805
C 273.688 475.205 269.589 472.584 264.294 473.353
C 260.683 473.878 257.397 476.589 257.756 480.476
C 258.117 484.375 262.065 485.578 265.23 486.51
C 270.991 488.206 279.499 489.237 281.279 496.139
C 283.085 503.143 278.162 508.852 271.427 510.029
C 264.261 511.282 256.813 509.16 251.515 504.144
C 251.625 503.92 251.734 503.696 251.844 503.472 Z"
opacity="1" fill="rgb(156,25,27)" fill-rule="evenodd" />
<path d="
M 268.95 542.581
C 269.717 540.623 270.916 538.539 272.958 537.687
C 277.632 535.736 281.491 540.646 281.382 544.945
C 277.966 546.116 273.958 544.366 270.585 545.349
C 271.297 547.938 272.888 550.963 276.201 550.009
C 277.136 549.739 279.951 547.397 280.786 548.516
C 280.694 549.238 280.031 549.558 279.493 549.971
C 277.649 551.387 275.633 552.295 273.294 551.425
C 269.87 550.151 268.288 545.94 268.95 542.581 Z
M 270.38 543.206
C 270.336 543.369 270.292 543.533 270.249 543.696
C 273.344 543.554 276.573 544.151 279.644 543.608
C 279.839 543.039 279.327 542.398 279.091 541.891
C 278.096 539.757 276.514 538.177 273.95 538.94
C 271.99 539.523 271.322 541.667 270.38 543.206 Z"
opacity="1" fill="rgb(4,3,3)" fill-rule="evenodd" />
<path d="
M 276.009 83.618
C 276.326 80.642 276.984 77.913 278.567 75.332
C 284.256 66.062 296.494 66.437 303.944 73.073
C 303.591 73.711 301.821 76.418 301.2 76.274
C 299.685 74.544 298.149 73.229 295.915 72.493
C 294.205 71.929 292.385 71.778 290.595 71.921
C 276.448 73.055 277.481 96.201 291.449 96.836
C 293.12 96.912 294.791 96.668 296.363 96.086
C 298.889 95.152 300.537 93.478 302.154 91.388
C 303.341 91.779 304.401 92.959 305.407 93.698
C 300.026 101.503 288.238 102.824 281.178 96.589
C 277.569 93.402 275.757 88.373 276.009 83.618 Z"
opacity="1" fill="rgb(5,5,4)" fill-rule="evenodd" />
<path d="
M 276.259 164.923
C 290.899 156.423 309.346 154.462 325.082 161.247
C 327.798 162.418 330.765 163.554 333.213 165.23
C 333.827 166.937 332.955 169.66 332.817 171.455
C 332.195 179.528 328.773 186.63 321.43 190.551
C 306.25 198.657 280.857 194.397 277.209 175.061
C 276.762 172.692 276.458 170.315 276.288 167.909
C 276.221 166.957 275.932 165.807 276.259 164.923 Z"
opacity="1" fill="rgb(129,20,20)" fill-rule="evenodd" />
<path d="
M 284.391 538.072
C 284.756 537.615 285.063 537.047 285.719 537.488
C 285.95 538.074 286.02 538.769 286.108 539.391
C 286.127 540.043 288.29 538.084 288.806 537.845
C 290.415 537.099 292.435 537.262 293.835 538.377
C 296.527 540.521 295.892 544.501 295.834 547.532
C 295.808 548.881 295.982 550.254 295.777 551.593
C 295.128 551.76 294.874 551.615 294.302 551.315
C 293.836 548.283 294.901 544.822 294.018 541.881
C 293.244 539.301 290.805 538.522 288.51 539.806
C 287.754 540.228 287.091 540.778 286.52 541.423
C 285.539 544.584 287.061 548.664 285.803 551.687
C 285.266 551.838 284.952 551.652 284.49 551.358
C 284.085 549.301 284.306 547.091 284.304 545.004
C 284.302 542.724 284.027 540.33 284.391 538.072 Z"
opacity="1" fill="rgb(7,7,7)" fill-rule="evenodd" />
<path d="
M 306.408 539.527
C 308.036 537.229 310.633 536.742 313.226 537.664
C 314.214 538.016 315.596 538.66 315.417 539.886
C 312.828 540.024 309.657 537.169 307.87 540.452
C 308.01 544.678 316.781 542.606 316.227 547.881
C 315.72 552.707 306.484 553.044 306.061 548.437
C 306.942 548.434 307.467 548.877 308.246 549.229
C 310.214 550.119 315.9 550.448 314.102 546.679
C 311.655 544.171 304.604 545.004 306.408 539.527 Z"
opacity="0.996" fill="rgb(2,1,0)" fill-rule="evenodd" />
<path d="
M 308.406 200.978
C 308.522 200.83 308.638 200.683 308.754 200.536
C 321.294 198.881 332.774 193.164 337.121 180.546
C 337.883 178.336 338.523 176.143 338.807 173.817
C 341.72 176.34 343.828 180.548 345.753 183.85
C 346.744 185.552 347.968 187.544 348.208 189.539
C 348.721 193.827 347.815 199.216 347.075 203.45
C 346.556 204.687 344.911 205.526 343.941 206.406
C 342.143 207.962 340.418 209.615 338.651 211.208
C 335.105 214.723 331.346 218.125 327.567 221.388
C 326.727 222.113 325.825 222.791 325.021 223.555
C 324.877 223.692 324.283 224.461 324.427 224.622
C 324.698 224.925 325.536 224.175 325.723 224.039
C 326.887 223.194 328.265 222.608 329.526 221.921
C 333.029 220.011 336.637 218.308 340.159 216.434
C 341.774 215.574 344.04 213.812 345.862 213.603
C 346.883 213.487 348.067 214.13 349.008 214.466
C 351.058 215.199 353.133 215.847 355.196 216.539
C 364.233 219.571 372.333 221.666 378.271 229.711
C 381.657 234.3 383.111 239.675 384.934 244.982
C 387.323 251.935 389.514 258.97 392.011 265.886
C 396.231 277.578 399.85 289.49 403.891 301.243
C 409.286 316.935 414.776 332.594 419.929 348.367
C 423.338 358.802 427.035 369.14 430.451 379.572
C 431.458 382.647 432.394 385.769 433.507 388.807
C 433.925 389.948 434.867 391.667 434.855 392.861
C 432.28 393.398 429.721 394.734 427.28 395.712
C 423.216 397.338 419.126 398.9 415.058 400.514
C 413.428 401.16 411.794 401.804 410.183 402.497
C 409.556 402.767 408.487 403.481 407.815 403.289
C 405.73 397.916 403.089 392.778 400.906 387.441
C 393.372 369.021 385.523 350.712 378.308 332.161
C 375.228 324.242 371.804 316.457 368.622 308.578
C 367.912 306.82 367.056 305.048 366.495 303.238
C 366.072 301.871 365.786 300.231 364.805 299.165
C 365.638 320.128 366.045 341.136 366.89 362.105
C 367.236 370.683 367.545 379.272 367.796 387.858
C 367.919 392.088 368.481 396.439 368.202 400.662
C 364.675 400.522 361.047 400.898 357.505 400.913
C 349.172 400.948 340.838 400.905 332.504 400.933
C 327.337 400.95 322.17 400.955 317.003 400.949
C 314.361 400.945 311.544 400.67 308.926 400.998
C 308.066 400.244 308.411 398.574 308.4 397.496
C 308.37 394.496 308.362 391.496 308.357 388.496
C 308.335 376.162 308.394 363.828 308.379 351.494
C 308.348 325.68 308.628 299.866 308.537 274.059
C 308.452 249.712 307.925 225.32 308.406 200.978 Z
M 318.215 250.146
C 318.666 258.037 318.234 266.09 318.232 273.998
C 318.23 282.871 318.625 291.833 318.189 300.696
C 320.085 301.228 323.346 300.937 325.334 300.775
C 324.903 298.679 325.237 296.151 325.229 294.007
C 325.212 289.674 325.177 285.341 325.161 281.008
C 325.136 274.174 325.168 267.341 325.155 260.508
C 325.148 257.183 324.733 253.468 325.203 250.193
C 322.892 250.36 320.531 250.197 318.215 250.146 Z
M 340.973 333.419
C 342.221 337.849 342.749 342.559 343.536 347.09
C 344.456 352.386 345.567 357.651 346.525 362.941
C 347.775 369.84 350.16 377.091 350.336 384.116
C 350.623 384.403 351.53 383.832 351.916 383.704
C 353.652 383.128 355.516 383.08 357.266 382.626
C 357.603 382.076 356.829 379.821 356.715 379.146
C 356.15 375.781 355.54 372.433 354.866 369.088
C 353.19 360.775 351.705 352.414 350.123 344.084
C 349.336 339.938 348.17 335.77 347.616 331.599
C 345.647 332.485 342.72 332.233 340.973 333.419 Z"
opacity="1" fill="rgb(178,30,34)" fill-rule="evenodd" />
<path d="
M 314.913 469.965
C 315.01 469.822 315.107 469.678 315.204 469.535
C 322.46 469.269 329.75 469.409 337.013 469.399
C 338.845 469.397 340.675 469.357 342.507 469.342
C 342.92 469.339 343.927 469.158 344.181 469.477
C 344.343 470.971 344.214 472.464 344.149 473.958
C 336.118 474.653 327.841 473.739 319.771 474.18
C 319.611 478.601 319.642 483.059 319.737 487.482
C 327.075 487.844 334.677 487.667 342.025 487.333
C 342.112 488.214 342.344 491.519 341.887 492.151
C 334.551 491.711 327.098 492.524 319.759 492.302
C 319.18 496.559 319.668 501.195 319.656 505.496
C 319.652 506.598 319.707 507.699 319.703 508.801
C 319.703 508.925 319.769 509.832 319.612 509.901
C 318.142 509.81 316.27 510.226 314.88 509.824
C 315.421 496.583 314.754 483.223 314.913 469.965 Z"
opacity="1" fill="rgb(156,29,31)" fill-rule="evenodd" />
<path d="
M 315.934 84.1
C 316.607 80.419 317.949 77.13 320.637 74.437
C 325.749 69.317 334.484 68.719 340.42 72.694
C 342.16 73.859 344.804 75.737 345.549 77.77
C 344.952 78.371 342.975 80.107 342.116 79.949
C 338.919 73.91 330.467 71.811 324.964 76.029
C 319.713 80.054 318.202 88.436 322.077 93.91
C 323.197 95.494 324.631 96.766 326.348 97.672
C 328.235 98.669 330.656 99.04 332.768 98.862
C 335.599 98.625 337.781 97.377 339.956 95.639
C 340.684 96.001 342.874 97.853 342.789 98.73
C 339.894 100.826 336.14 102.499 332.527 102.668
C 324.644 103.037 317.674 97.904 316.077 90.157
C 315.667 88.168 315.602 86.108 315.934 84.1 Z"
opacity="1" fill="rgb(5,4,3)" fill-rule="evenodd" />
<path d="
M 318.949 538.582
C 319.203 537.513 319.581 537.064 320.749 537.671
C 320.715 539.494 320.814 541.326 320.773 543.157
C 320.739 544.709 320.42 546.765 321.139 548.208
C 322.053 550.043 324.629 550.382 326.201 549.278
C 328.946 547.351 328.568 544.227 328.535 541.215
C 328.514 539.272 327.937 537.44 330.201 537.303
C 331.029 540.465 330.48 544.724 330.333 547.981
C 330.279 549.161 330.657 550.592 330.221 551.712
C 328.888 552.121 329.21 550.141 328.553 549.693
C 326.917 550.312 325.784 551.614 323.915 551.721
C 317.657 552.08 318.55 542.508 318.949 538.582 Z"
opacity="1" fill="rgb(5,6,7)" fill-rule="evenodd" />
<path d="
M 340.46 544.102
C 340.999 541.069 342.558 537.749 345.954 537.277
C 347.97 536.998 353.028 537.895 352.449 540.899
C 351.094 540.991 349.79 539.292 348.401 539.009
C 344.545 538.224 341.894 542.256 342.618 545.762
C 343.108 548.135 345.112 550.111 347.619 549.917
C 349 549.81 349.828 548.896 351.044 548.393
C 351.618 548.155 352.571 547.907 352.323 548.889
C 351.706 551.328 347.953 551.817 345.954 551.391
C 342.62 550.68 340.38 547.45 340.46 544.102 Z"
opacity="1" fill="rgb(2,1,1)" fill-rule="evenodd" />
<path d="
M 348.38 508.498
C 352.75 499.431 356.688 490.072 360.775 480.868
C 362.422 477.157 363.753 472.778 365.974 469.392
C 367.34 469.086 368.765 469.249 370.15 469.205
C 371.167 470.252 371.674 472.252 372.233 473.595
C 373.277 476.107 374.473 478.547 375.608 481.018
C 380.052 490.686 384.632 500.326 389.033 509.995
C 387.488 510.431 385.224 509.811 383.599 509.888
C 381.745 506.805 380.668 502.968 379.206 499.67
C 378.214 498.882 375.27 499.375 374.005 499.377
C 369.838 499.382 365.672 499.385 361.506 499.402
C 360.212 499.407 357.956 499.025 356.912 499.816
C 355.312 503.001 354.069 506.461 352.742 509.769
C 351.533 510.054 349.141 510.088 348.143 509.352
C 348.257 508.764 348.177 509.048 348.38 508.498 Z
M 359.451 494.072
C 359.341 494.314 359.23 494.556 359.12 494.798
C 363.085 494.889 367.043 494.883 371.011 494.865
C 372.892 494.856 375.061 494.561 376.904 494.853
C 375.147 490.392 372.956 485.977 371.047 481.551
C 370.314 479.853 369.572 478.163 368.875 476.449
C 368.66 475.919 368.672 474.725 368.039 475.287
C 365.698 481.6 362.604 488.112 359.451 494.072 Z"
opacity="1" fill="rgb(155,26,28)" fill-rule="evenodd" />
<path d="
M 352.354 106.032
C 354.268 99.224 356.385 92.436 358.517 85.691
C 359.429 82.807 359.822 78.935 361.417 76.366
C 362.473 76.699 364.035 77.004 364.76 77.85
C 364.836 79.1 364.166 80.258 363.855 81.448
C 363.314 83.513 362.724 85.565 362.073 87.599
C 360.704 91.883 359.308 96.203 358.083 100.53
C 357.404 102.93 356.979 105.773 355.759 107.961
C 354.539 108.011 353.385 107.403 352.241 107.076
C 352.249 106.367 352.21 106.715 352.354 106.032 Z"
opacity="1" fill="rgb(4,5,4)" fill-rule="evenodd" />
<path d="
M 354.448 543.086
C 355.138 539.019 359.843 535.939 363.752 537.84
C 366.798 539.321 368.418 542.54 367.965 545.848
C 367.474 549.43 363.208 552.409 359.739 551.533
C 356.147 550.626 353.849 546.624 354.448 543.086 Z
M 356.472 542.583
C 355.759 544.997 356.716 548.115 358.978 549.367
C 361.604 550.82 365.067 549.213 365.956 546.411
C 366.792 543.776 365.561 540.298 362.918 539.181
C 360.232 538.045 357.238 539.991 356.472 542.583 Z"
opacity="1" fill="rgb(1,0,0)" fill-rule="evenodd" />
<path d="
M 370.985 541.118
C 371.108 539.86 371.004 538.588 371.386 537.372
C 372.618 537.241 372.6 537.971 372.887 539.036
C 374.069 539.031 374.738 537.903 375.81 537.51
C 377.918 536.738 380.118 538.101 381.128 539.956
C 381.666 540.013 382.458 539.017 382.906 538.685
C 384.132 537.773 385.425 537.156 386.997 537.329
C 391.961 537.875 391.175 544.012 390.977 547.501
C 390.916 548.577 391.37 550.262 390.808 551.218
C 390.294 551.334 389.966 551.297 389.458 551.284
C 388.801 548.089 390.11 544.606 389.09 541.437
C 387.886 537.698 383.811 539.026 382.1 541.514
C 381.519 544.674 382.601 548.221 381.825 551.308
C 381.287 551.359 380.789 551.386 380.287 551.188
C 379.809 548.079 381.067 544.543 380.058 541.51
C 378.832 537.821 374.568 538.804 372.93 541.548
C 372.58 543.902 372.639 546.503 372.742 548.879
C 372.774 549.613 373.163 551.074 372.42 551.5
C 370.827 551.434 371.167 550.34 371.08 549.054
C 370.904 546.444 370.811 543.731 370.985 541.118 Z"
opacity="1" fill="rgb(2,2,1)" fill-rule="evenodd" />
<path d="
M 372.44 101.085
C 372.854 98.929 373.71 96.826 374.921 94.994
C 376.103 93.208 377.685 91.731 379.505 90.615
C 391.269 83.4 407.249 93.438 404.579 107.374
C 403.537 112.816 399.803 117.385 394.703 119.548
C 386.392 123.073 375.532 118.925 372.822 110.02
C 371.944 107.133 371.873 104.036 372.44 101.085 Z
M 376.441 102.083
C 376.099 103.835 376.129 105.86 376.474 107.61
C 376.759 109.057 377.296 110.532 378.106 111.768
C 384.283 121.195 398.44 116.742 400.375 106.405
C 400.67 104.827 400.59 103.21 400.293 101.638
C 400.005 100.114 399.5 98.607 398.653 97.3
C 392.766 88.22 378.455 91.762 376.441 102.083 Z"
opacity="1" fill="rgb(3,3,3)" fill-rule="evenodd" />
<path d="
M 393.951 543.594
C 394.416 539.917 397.832 537.025 401.561 537.413
C 404.359 537.703 407.994 541.367 407.567 544.382
C 407.108 547.627 405.108 550.776 401.696 551.501
C 397.265 552.444 393.425 547.763 393.951 543.594 Z
M 395.973 543.078
C 395.538 545.322 396.083 547.765 398.062 549.106
C 401.095 551.162 405.079 548.805 405.615 545.432
C 406.596 539.26 397.251 536.482 395.973 543.078 Z"
opacity="1" fill="rgb(1,1,0)" fill-rule="evenodd" />
<path d="
M 396.382 503.495
C 397.044 502.476 397.917 501.635 398.618 500.649
C 399.664 500.632 401.237 502.39 402.146 502.969
C 404.306 504.344 406.558 505.367 409.084 505.852
C 412.063 506.425 415.417 506.39 418.122 504.855
C 421.386 503.001 422.392 498.835 419.951 495.864
C 414.642 489.401 401.366 493.218 398.274 484.006
C 397.905 482.905 397.761 481.719 397.752 480.56
C 397.74 479.056 397.881 477.557 398.432 476.145
C 401.29 468.818 410.692 467.809 417.29 469.944
C 419.317 470.599 421.203 471.512 423.02 472.618
C 423.393 472.845 424.785 473.508 424.764 473.931
C 424.325 475.266 423.581 476.754 422.83 477.935
C 418.422 475.35 413.917 472.488 408.509 473.445
C 404.222 474.203 400.68 478.859 403.483 482.948
C 405.143 485.371 408.44 486.077 411.11 486.754
C 417.078 488.268 424.516 489.839 426.074 496.752
C 427.512 503.133 423.118 508.586 417.055 509.959
C 410.273 511.494 400.815 509.417 396.009 504.041
C 396.133 503.859 396.257 503.677 396.382 503.495 Z"
opacity="1" fill="rgb(160,25,27)" fill-rule="evenodd" />
<path d="
M 405.245 131.991
C 412.269 124.176 418.51 115.607 425.536 107.802
C 426.551 108.072 427.522 109.101 428.282 109.802
C 428.7 110.603 428.437 111.807 428.394 112.679
C 428.303 114.553 428.286 116.43 428.222 118.305
C 427.961 125.932 427.65 133.658 427.083 141.273
C 428.499 140.821 430.165 137.666 431.131 136.503
C 433.943 133.114 436.852 129.782 439.831 126.54
C 440.876 125.402 442.057 123.277 443.503 122.688
C 444.293 123.498 445.16 124.255 446.02 124.994
C 445.99 125.709 445.461 125.943 445.004 126.433
C 443.945 127.57 442.943 128.765 441.982 129.985
C 438.099 134.914 433.776 139.497 429.789 144.345
C 428.701 145.668 427.545 146.949 426.53 148.331
C 426.176 148.814 425.792 149.744 425.146 149.887
C 424.39 149.252 423.633 148.602 422.981 147.859
C 422.493 146.81 422.688 145.602 422.738 144.47
C 422.84 142.167 422.941 139.857 423.142 137.561
C 423.771 130.353 424.009 123.082 424.206 115.856
C 422.573 117.088 421.213 119.293 419.894 120.885
C 417.212 124.123 414.313 127.19 411.673 130.46
C 410.557 131.841 409.647 133.81 408.181 134.819
C 407.017 134.197 406.171 133.145 405.076 132.434
C 405.132 132.286 405.188 132.139 405.245 131.991 Z"
opacity="1" fill="rgb(3,3,2)" fill-rule="evenodd" />
<path d="
M 409.951 542.08
C 410.948 538.838 413.931 536.388 417.399 537.684
C 418.796 538.207 419.534 539.229 420.683 539.979
C 421.305 537.53 420.576 534.429 420.872 531.846
C 423.292 531.628 422.58 534.256 422.581 535.987
C 422.583 539.98 422.948 544.178 422.538 548.149
C 422.425 549.243 422.722 550.532 422.319 551.56
C 421.966 551.746 421.792 551.623 421.412 551.559
C 421.093 550.899 420.912 550.079 420.869 549.345
C 419.27 549.694 418.255 551.489 416.463 551.682
C 411.254 552.246 409.182 546.172 409.951 542.08 Z
M 411.444 543.595
C 411.221 545.909 411.832 548.365 414.109 549.489
C 416.945 550.889 420.557 548.44 420.797 545.435
C 420.907 544.056 420.856 542.582 420.064 541.407
C 417.359 537.396 411.906 538.807 411.444 543.595 Z"
opacity="1" fill="rgb(2,2,2)" fill-rule="evenodd" />
<path d="
M 427.43 531.934
C 428.58 532.033 430.327 532.67 429.153 534.092
C 427.708 534.468 426.113 533.496 427.43 531.934 Z"
opacity="1" fill="rgb(1,4,3)" fill-rule="evenodd" />
<path d="
M 427.397 537.386
C 427.488 537.379 428.547 537.241 428.744 537.385
C 429.175 537.7 428.905 540.012 428.915 540.506
C 428.963 543.004 428.895 545.504 428.93 548.002
C 428.945 549.033 429.236 550.332 428.831 551.302
C 428.307 551.394 427.924 551.369 427.403 551.314
C 426.878 546.827 427.262 541.901 427.397 537.386 Z"
opacity="1" fill="rgb(1,2,1)" fill-rule="evenodd" />
<path d="
M 428.863 355.515
C 431.508 351.833 434.504 348.429 436.984 344.612
C 443.587 334.448 449.382 323.668 453.542 312.261
C 456.37 304.506 457.711 296.529 459.942 288.654
C 460.041 288.21 460.078 289.356 460.079 289.368
C 460.114 289.993 460.059 290.637 459.973 291.256
C 459.694 293.262 459.479 295.285 459.218 297.296
C 458.488 302.926 457.202 308.66 455.57 314.096
C 451.583 327.375 446.555 340.048 439.495 352.034
C 437.794 354.922 436.133 357.81 434.254 360.589
C 433.503 361.699 432.718 363.228 431.586 363.985
C 430.622 361.518 428.992 358.606 428.667 355.989
C 428.733 355.831 428.798 355.673 428.863 355.515 Z"
opacity="1" fill="rgb(141,30,32)" fill-rule="evenodd" />
<path d="
M 432.417 542.572
C 433.337 539.369 436.295 536.192 439.958 537.53
C 441.36 538.042 442.431 539.085 443.457 540.116
C 444.077 539.704 443.676 538.731 443.67 538.09
C 443.65 536.048 443.434 534.03 443.44 531.988
C 444.102 531.925 444.762 531.947 445.424 531.879
C 445.668 535.221 445.151 538.641 445.279 541.996
C 445.389 544.868 446.026 548.876 445.18 551.638
C 443.813 552.088 443.789 550.179 443.716 549.265
C 442.584 550.244 440.93 551.423 439.402 551.607
C 434.358 552.212 431.707 546.784 432.417 542.572 Z
M 434.406 542.569
C 433.856 544.714 434.141 547.122 435.82 548.658
C 438.006 550.657 442.303 549.947 443.313 546.869
C 443.846 545.245 443.684 542.211 442.532 540.889
C 440 537.98 435.423 538.603 434.406 542.569 Z"
opacity="1" fill="rgb(3,4,3)" fill-rule="evenodd" />
<path d="
M 434.325 159.008
C 440.474 154.423 446.499 149.666 452.612 145.028
C 454.926 143.272 457.128 141.155 459.578 139.606
C 463.424 143.969 466.703 148.819 470.307 153.38
C 471.203 154.514 472.077 155.676 473.083 156.718
C 473.338 156.981 473.989 157.479 473.887 157.862
C 473.133 158.539 471.54 160.032 470.515 159.975
C 467.938 156.029 464.716 152.421 461.835 148.694
C 461.271 147.964 459.832 145.272 459.024 145.276
C 456.741 147.612 453.827 149.661 451.021 151.312
C 453.651 154.187 455.884 157.331 458.319 160.36
C 459.235 161.5 461.249 163.015 461.603 164.397
C 460.737 165.363 459.742 166.065 458.684 166.785
C 457.658 166.356 456.573 164.187 455.86 163.251
C 453.467 160.109 450.547 157.083 448.36 153.832
C 447.639 153.826 446.572 154.862 446.017 155.331
C 444.128 156.925 442.143 158.384 440.24 159.956
C 439.989 160.914 441.709 162.343 442.379 163.089
C 444.95 165.95 447.079 169.146 449.389 172.212
C 449.965 172.976 452.225 174.905 451.997 175.781
C 451.048 176.562 450.007 177.345 448.9 177.884
C 447.264 176.357 445.938 173.807 444.516 172.014
C 441.119 167.729 437.765 163.385 434.183 159.254
C 434.23 159.172 434.278 159.09 434.325 159.008 Z"
opacity="1" fill="rgb(5,4,4)" fill-rule="evenodd" />
<path d="
M 440.045 469.44
C 441.361 469.437 443.113 469.057 444.371 469.455
C 444.426 475.373 444.742 481.45 444.493 487.354
C 452.154 486.862 459.942 487.862 467.597 487.326
C 467.037 484.847 467.426 482.023 467.433 479.496
C 467.441 476.237 467.012 472.642 467.494 469.428
C 469.022 469.539 470.593 469.421 472.129 469.42
C 472.549 472.487 472.133 475.891 472.15 478.996
C 472.187 485.996 472.211 492.996 472.235 499.996
C 472.246 503.142 471.78 506.812 472.368 509.892
C 470.795 509.743 469.184 509.703 467.607 509.775
C 467.093 508.235 467.429 505.776 467.41 504.134
C 467.364 500.057 467.227 495.925 467.413 491.855
C 459.731 491.595 451.974 492.179 444.3 491.77
C 444.485 497.678 443.478 504.029 444.264 509.873
C 442.717 509.713 441.152 509.846 439.604 509.708
C 439.953 501.34 439.594 492.879 439.596 484.5
C 439.597 479.718 440.293 474.281 439.425 469.591
C 439.631 469.54 439.838 469.49 440.045 469.44 Z"
opacity="1" fill="rgb(167,30,30)" fill-rule="evenodd" />
<path d="
M 448.883 546.041
C 450.37 542.083 454.985 543.199 458.267 543.053
C 458.358 542.471 458.209 541.757 457.986 541.215
C 456.137 536.717 452.196 540.679 449.241 540.161
C 451.083 536.742 456.323 535.893 458.814 539.174
C 460.79 541.776 459.942 545.388 459.944 548.365
C 459.945 549.491 460.375 550.59 459.991 551.695
C 458.82 551.944 458.703 550.562 458.567 549.667
C 457.244 550.326 455.948 551.452 454.451 551.659
C 451.193 552.108 448.16 549.318 448.883 546.041 Z
M 450.437 547.086
C 450.419 547.275 450.4 547.465 450.382 547.655
C 450.857 550.124 453.975 550.681 455.869 549.575
C 457.889 548.396 458.345 546.81 458.387 544.604
C 457.744 544.213 456.8 544.397 456.06 544.416
C 453.611 544.48 451.413 544.512 450.437 547.086 Z"
opacity="0.996" fill="rgb(3,3,3)" fill-rule="evenodd" />
<path d="
M 456.968 185.613
C 457.163 184.526 457.308 183.67 457.869 182.696
C 459.192 182.534 460.283 182.735 461.505 183.258
C 461.74 184.293 461.126 185.609 460.951 186.642
C 460.709 188.066 460.756 189.584 460.956 191.01
C 461.533 195.118 466.319 203.353 471.079 198.239
C 472.938 196.241 472.162 193.148 471.747 190.749
C 470.954 186.173 469.218 180.26 473.057 176.551
C 476.563 173.166 482.11 174.311 485.365 177.394
C 489.175 181.001 490.85 187.673 489.297 192.714
C 488.038 192.901 486.695 192.583 485.447 192.402
C 485.065 191.629 485.372 190.523 485.423 189.684
C 485.534 187.88 485.506 185.94 485.001 184.191
C 483.972 180.631 477.554 175.408 475.22 180.975
C 474.539 182.599 475.031 184.773 475.298 186.435
C 476.051 191.116 478.186 196.751 474.583 200.812
C 470.946 204.911 464.575 204.388 461.086 200.448
C 457.572 196.479 456.377 190.78 456.968 185.613 Z"
opacity="1" fill="rgb(4,4,4)" fill-rule="evenodd" />
<path d="
M 463.449 542.578
C 465.28 536.834 470.793 535.786 474.571 540.412
C 474.899 540.507 474.438 538.368 474.427 538.068
C 474.369 536.561 473.851 533.378 474.655 532.14
C 476.748 532.067 476.216 533.955 476.174 535.596
C 476.079 539.365 476.283 543.135 476.206 546.903
C 476.185 547.967 476.869 550.484 475.988 551.33
C 474.933 552.342 474.499 549.688 474.605 549.134
C 473.31 549.967 472.03 551.234 470.454 551.473
C 465.351 552.245 462.676 546.832 463.449 542.578 Z
M 465.003 544.107
C 464.942 546.253 465.794 548.333 467.839 549.33
C 470.851 550.799 474.224 547.967 474.29 544.94
C 474.323 543.445 474.15 542.009 473.134 540.847
C 470.148 537.428 465.125 539.814 465.003 544.107 Z"
opacity="1" fill="rgb(1,1,0)" fill-rule="evenodd" />
<path d="
M 485.988 537.381
C 487.304 537.581 487.586 538.785 488.089 539.884
C 489.327 542.592 490.735 545.414 491.618 548.258
C 492.623 549.097 493.202 546.256 493.486 545.563
C 494.393 543.348 495.233 541.102 496.195 538.908
C 496.654 537.862 497.268 537.2 498.449 537.487
C 497.724 540.687 495.875 543.975 494.52 546.971
C 493.561 549.092 493.02 551.633 491.78 553.597
C 490.97 554.88 489.717 556.048 488.068 555.896
C 487.142 555.81 485.26 554.8 486.347 553.814
C 487.339 553.912 488.307 554.213 489.307 554.137
C 491.421 552.954 491.053 550.923 490.246 549.03
C 488.639 545.263 486.922 541.511 485.503 537.67
C 485.664 537.574 485.826 537.477 485.988 537.381 Z"
opacity="1" fill="rgb(4,3,3)" fill-rule="evenodd" />
<path d="
M 488.259 469.715
C 489.697 469.37 491.355 469.571 492.828 469.568
C 493.264 470.127 492.989 471.74 492.975 472.497
C 492.927 474.997 492.952 477.501 492.954 480.002
C 492.964 489.882 492.462 499.961 493.16 509.817
C 491.59 509.962 489.976 509.701 488.397 509.798
C 487.913 506.162 488.332 502.173 488.331 498.501
C 488.33 488.946 488.784 479.253 488.259 469.715 Z"
opacity="1" fill="rgb(162,32,29)" fill-rule="evenodd" />
<path d="
M 506.913 543.085
C 507.972 539.764 510.46 536.67 514.392 537.375
C 516.957 537.835 520.544 542.341 518.925 544.965
C 516.298 545.223 513.707 545.134 511.075 545.262
C 510.502 545.29 508.742 545.173 508.581 545.917
C 508.439 546.577 509.324 547.718 509.727 548.162
C 512.824 551.571 515.61 548.949 518.73 547.582
C 519.16 550.487 514.585 551.539 512.53 551.244
C 508.486 550.662 506.401 546.995 506.913 543.085 Z
M 508.492 543.158
C 508.479 543.369 508.465 543.58 508.452 543.791
C 511.248 543.161 514.76 543.765 517.678 543.588
C 517.901 543.143 517.334 542.61 517.138 542.218
C 516.378 540.697 515.717 538.78 513.666 538.699
C 510.832 538.588 509.55 540.938 508.492 543.158 Z"
opacity="1" fill="rgb(4,5,4)" fill-rule="evenodd" />
<path d="
M 507.462 487.61
C 507.7 484.88 508.562 482.182 509.825 479.765
C 510.884 477.738 512.385 475.969 514.021 474.385
C 525.279 463.487 544.488 470.366 547.945 485.016
C 548.392 486.907 548.74 489.036 548.556 490.987
C 548.047 496.389 545.67 501.759 541.55 505.378
C 530.712 514.897 513.209 510.126 508.45 496.747
C 507.428 493.874 507.197 490.633 507.462 487.61 Z
M 512.401 487.08
C 510.164 500.349 524.442 510.549 536.024 503.459
C 537.754 502.4 539.211 501.141 540.388 499.479
C 541.854 497.409 542.807 495.059 543.281 492.57
C 545.73 479.717 531.448 468.762 520.013 475.748
C 517.959 477.003 516.285 478.724 514.952 480.718
C 513.669 482.637 512.785 484.803 512.401 487.08 Z"
opacity="1" fill="rgb(162,27,28)" fill-rule="evenodd" />
<path d="
M 520.845 548.271
C 522.171 548.375 523.155 549.216 524.407 549.652
C 525.767 550.127 530.732 550.417 529.795 547.629
C 528.712 544.401 522.787 545.847 522.017 542.526
C 520.896 537.69 527.44 535.487 530.522 538.638
C 530.677 539.018 530.994 539.623 530.595 539.923
C 528.489 539.766 524.35 537.102 523.845 540.949
C 523.77 541.523 523.842 541.944 524.068 542.464
C 525.833 543.501 528.207 543.596 529.809 544.894
C 531.821 546.524 531.819 549.08 529.718 550.624
C 527.181 552.489 521.643 551.641 520.845 548.271 Z"
opacity="1" fill="rgb(4,3,3)" fill-rule="evenodd" />
<path d="
M 533.07 537.984
C 533.642 537.762 534.245 537.679 534.853 537.615
C 535.732 536.743 534.106 533.728 535.243 533.089
C 535.67 532.849 536.219 533.006 536.702 532.928
C 537.017 534.176 536.371 536.527 536.929 537.487
C 538.19 537.217 539.948 537.239 541.178 537.652
C 541.287 538.02 541.476 538.527 541.135 538.811
C 539.758 538.815 538.418 538.869 537.062 539.031
C 536.835 541.261 536.86 543.49 536.779 545.729
C 536.735 546.924 536.606 548.422 537.264 549.463
C 538.409 550.25 541.904 549.175 541.201 550.737
C 539.443 552.053 536.205 551.995 535.438 549.5
C 534.79 547.391 535.329 544.488 535.344 542.295
C 535.347 541.808 535.658 539.325 535.316 539.101
C 534.495 538.955 533.465 539.22 532.776 538.724
C 532.874 538.477 532.972 538.23 533.07 537.984 Z"
opacity="0.996" fill="rgb(5,7,5)" fill-rule="evenodd" />
<path d="
M 544.282 532.151
C 545.035 532.015 545.726 531.972 546.448 532.239
C 546.461 532.999 546.631 534.023 545.992 534.555
C 544.317 534.86 544.201 533.445 544.282 532.151 Z"
opacity="1" fill="rgb(7,10,8)" fill-rule="evenodd" />
<path d="
M 544.427 538.589
C 544.564 538.07 544.51 537.75 544.818 537.289
C 545.522 537.303 546.153 537.054 546.523 537.715
C 546.558 540.969 546.507 544.233 546.472 547.5
C 546.46 548.724 546.778 550.588 545.904 551.563
C 544.245 551.953 544.436 549.742 544.399 548.629
C 544.288 545.345 544.158 541.861 544.427 538.589 Z"
opacity="1" fill="rgb(8,4,5)" fill-rule="evenodd" />
<path d="
M 550.489 534.121
C 550.665 532.651 550.488 531.651 552.228 531.678
C 552.681 535.715 552.43 539.939 552.441 544.001
C 552.445 545.574 552.035 547.756 552.718 549.201
C 553.316 549.73 553.927 550.006 554.626 550.368
C 555.135 551.407 553.399 551.724 552.606 551.671
C 551.44 551.593 550.918 550.624 550.738 549.58
C 549.903 544.734 550.22 539.016 550.489 534.121 Z"
opacity="1" fill="rgb(4,3,3)" fill-rule="evenodd" />
<path d="
M 555.978 544.105
C 556.517 536.947 565.908 534.759 568.58 541.807
C 568.976 542.85 569.106 543.991 569.007 545.101
C 568.425 551.619 559.028 554.485 556.379 547.635
C 555.966 546.566 555.893 545.24 555.978 544.105 Z
M 557.985 542.577
C 557.306 544.704 557.884 547.39 559.632 548.824
C 561.996 550.765 565.663 549.641 566.718 546.806
C 567.603 544.43 567.108 541.533 565.025 539.928
C 562.529 538.005 558.863 539.826 557.985 542.577 Z"
opacity="1" fill="rgb(2,1,0)" fill-rule="evenodd" />
<path d="
M 562.274 469.717
C 563.41 469.509 565.259 469.183 566.349 469.672
C 567.193 470.051 567.727 471.112 568.288 471.81
C 569.688 473.555 571.022 475.35 572.427 477.091
C 577.395 483.246 582.206 489.534 587.115 495.738
C 588.602 497.618 589.807 499.938 591.402 501.687
C 591.689 501.902 591.437 500.566 591.411 500.386
C 591.305 499.665 591.326 498.943 591.34 498.216
C 591.388 495.815 591.334 493.404 591.338 491.002
C 591.35 483.848 591.735 476.591 591.377 469.45
C 592.979 469.466 594.576 469.374 596.179 469.381
C 597.019 482.797 595.487 496.376 596.221 509.798
C 595.036 509.96 593.408 509.985 592.267 509.602
C 589.636 507.398 587.636 504.034 585.498 501.357
C 581.146 495.91 576.916 490.366 572.555 484.928
C 570.796 482.733 569.111 479.518 566.951 477.784
C 567.986 485.484 567.233 493.727 567.167 501.493
C 567.144 504.16 566.693 507.136 567.124 509.761
C 565.862 510.161 563.886 509.709 562.53 509.735
C 562.071 509.257 562.364 507.691 562.358 507.002
C 562.337 504.502 562.331 502.002 562.327 499.502
C 562.313 489.589 562.572 479.622 562.274 469.717 Z"
opacity="1" fill="rgb(159,29,31)" fill-rule="evenodd" />
<path d="
M 562.418 534.018
C 563.161 533.025 564.127 531.843 565.463 532.565
C 565.356 534.048 563.687 535.469 562.198 535.285
C 562.128 534.406 562.056 534.828 562.418 534.018 Z"
opacity="1" fill="rgb(0,4,4)" fill-rule="evenodd" />

</svg>